<svg id="Layer_2" data-name="Layer 2" xmlns="http://www.w3.org/2000/svg" viewBox="0 0 292.65 388.64"><defs><style>.cls-1,.cls-5,.cls-6{stroke:#000;}.cls-1,.cls-10,.cls-11,.cls-3,.cls-4,.cls-5,.cls-6,.cls-7{stroke-miterlimit:10;stroke-width:5px;}.cls-10,.cls-2,.cls-8{fill:#fff;}.cls-3{fill:#e6e6e6;stroke:#e6e6e6;}.cls-4{fill:#b3b3b3;stroke:#b3b3b3;}.cls-5{fill:none;}.cls-6,.cls-7{fill:#ffe500;}.cls-7{stroke:#ffe500;}.cls-8,.cls-9{opacity:0.1;}.cls-10,.cls-11{stroke:#fff;}.cls-11{fill:#beffff;}</style></defs><path class="cls-1" d="M206,147c-16.65-.32-29.15,3.05-40.25,6-14.7,3.9-28.48,7.56-42.25,18.5A85.82,85.82,0,0,0,100,201c-19.77,1.72-34.56,17.45-35.82,35.56C63.47,246.79,69.37,259,88,273a122.08,122.08,0,0,0,27.12,25.47c33.94,23.16,70.83,22.42,90.38,22,13.74-.27,28.63-.57,47-7,31.81-11.13,51.15-32.61,60-44,1.88-1.38,17.45-13.25,17.45-32.32C329.94,219,315.71,201.8,295,197a83.85,83.85,0,0,0-14.88-21.62C254,147.92,216.64,147.2,206,147Z" transform="translate(-53.34 -144.42)"/><path class="cls-2" d="M103.92,204.33c-2.08,6.49-12.86,42.13,6.17,72.26,21.76,34.43,65.46,34.76,85.46,34.91,12,.09,76.94.58,96.85-43.64,13.65-30.31-1.75-64.09-3.32-67.41a83.73,83.73,0,0,0-23.26-29.58c-23.25-18.5-49.55-18.08-67.69-17.79-15.81.25-41.64.66-66.2,18.76A99.09,99.09,0,0,0,103.92,204.33Z" transform="translate(-53.34 -144.42)"/><path class="cls-1" d="M201.72,181.5a199.94,199.94,0,0,0-56.93,8c-4,1-21.46,5.83-31.38,22.86-15,25.78,2.14,53.91,2.92,55.14,10.06,15.9,25.78,21.56,35.33,25,11.36,4.09,20.2,4.46,36.32,5,20.62.69,34.34,1.15,51-4,16-4.94,35.3-10.89,45.15-30,8.49-16.46,7.88-38.63-2.94-54-7.1-10.08-16.44-14.16-27.49-19C234,181.87,216.76,181.59,201.72,181.5Z" transform="translate(-53.34 -144.42)"/><path class="cls-3" d="M113.59,372.87c3.17,16.84,11.38,45.43,35,70,12.9,13.43,28.22,29.37,49.28,29,29.7-.51,55.13-33.16,59.07-38.27,0,0,1.07-1.38,2.05-2.73a82.08,82.08,0,0,0,8.6-16c7.22-18.39,18.7-45.73,18-46s-5.53,25.05-24.63,50c-9.76,12.76-30.63,40-60.13,40-22.45,0-38.73-15.85-52.25-29A138.48,138.48,0,0,1,113.59,372.87Z" transform="translate(-53.34 -144.42)"/><path class="cls-4" d="M114.5,383.5c3.17,16.83,11.38,45.42,35,70,12.9,13.42,28.22,29.36,49.28,29,29.7-.51,55.13-33.16,59.07-38.28,0,0,1.07-1.38,2-2.72a82.38,82.38,0,0,0,8.6-16c7.21-18.39,18.7-45.73,18-46s-5.53,25.05-24.63,50c-9.76,12.75-30.64,40-60.13,40-22.45,0-38.74-15.86-52.25-29A138.54,138.54,0,0,1,114.5,383.5Z" transform="translate(-53.34 -144.42)"/><path class="cls-5" d="M197.5,482.5c-15.48-.21-26.87-8.45-33-13C140,451.28,108,405,114.35,354.77c2.39-18.82,8.41-24.27,11.15-26.27,9.95-7.28,20.17-1,49,1.79,12.6,1.22,34.19,3.32,59-.79,24-4,32.72-10.69,42-5,10.13,6.21,11.27,21.31,12,33,3.26,52-30.44,91.64-45,105-5,4.61-15.29,13.81-31,18A49.62,49.62,0,0,1,197.5,482.5Z" transform="translate(-53.34 -144.42)"/><path class="cls-3" d="M296.5,348.5a192.82,192.82,0,0,1,22,27c1.94,2.88,18.73,27.77,15,31-3,2.61-18.67-9.56-28.42-19.38-3-3-5.33-5.71-7-7.74Z" transform="translate(-53.34 -144.42)"/><path class="cls-4" d="M298.2,357.24c2.61,5.69,6.7,14.2,12.3,24.26,7.48,13.44,13,21.25,12,22-1.19.92-11.16-9.75-17-16-2.93-3.14-5.32-5.82-7-7.74Z" transform="translate(-53.34 -144.42)"/><path class="cls-5" d="M323.89,406s21.21,2.65,19.51-8.27a77.81,77.81,0,0,0-2.56-12.5A83.92,83.92,0,0,0,315,345.74c-8.7-7.28-21.15-13.94-22-14.87,0,0,0,0-.05,0-.44.1,3,13.34,4,24.93a90.37,90.37,0,0,1-1,22.5Z" transform="translate(-53.34 -144.42)"/><path class="cls-3" d="M107.22,345.18a193.42,193.42,0,0,0-22,27c-1.94,2.88-18.73,27.77-15,31,3,2.62,18.67-9.55,28.42-19.38,3-3,5.33-5.71,7-7.74Z" transform="translate(-53.34 -144.42)"/><path class="cls-4" d="M102.05,356c-2.62,5.69-6.71,14.19-12.31,24.25-7.47,13.45-13,21.26-12,22,1.2.92,11.16-9.74,17-16,2.93-3.13,5.32-5.81,7-7.74Q101.89,367.26,102.05,356Z" transform="translate(-53.34 -144.42)"/><path class="cls-5" d="M75.07,405.69s-21.36,1.45-19-9.35A76.62,76.62,0,0,1,59.28,384a83.89,83.89,0,0,1,28-38c9.11-6.78,21.9-12.71,22.79-13.61l.06,0c.45.13-3.77,13.15-5.4,24.67a89.64,89.64,0,0,0-.31,22.52Z" transform="translate(-53.34 -144.42)"/><path class="cls-6" d="M155.5,155.5a136.35,136.35,0,0,1,35-8,133.27,133.27,0,0,1,33,1,128.84,128.84,0,0,1,26,7,81,81,0,0,1-94,0Z" transform="translate(-53.34 -144.42)"/><path class="cls-7" d="M140.5,242.5c-.46-.83,5.34-7,13.36-7.77s15,4.17,14.7,5c-.2.61-4.48-1.4-11.41-1.23C147.11,238.72,140.94,243.31,140.5,242.5Z" transform="translate(-53.34 -144.42)"/><path class="cls-7" d="M263.52,243.19c.45-.83-5.34-7-13.36-7.76s-15,4.17-14.7,5c.2.61,4.48-1.4,11.4-1.23C256.91,239.42,263.08,244,263.52,243.19Z" transform="translate(-53.34 -144.42)"/><path class="cls-6" d="M68.5,188.5a12.22,12.22,0,0,1-4.74-11.18,12.72,12.72,0,0,1,5.74-8.82c4.43-2.85,11.6-3.47,16,1,4.8,4.87,4,13.43-1,18a13,13,0,0,1-7.8,3.3A12.15,12.15,0,0,1,68.5,188.5Z" transform="translate(-53.34 -144.42)"/><path class="cls-6" d="M332.18,191.27a12.18,12.18,0,0,0,4.74-11.18,12.72,12.72,0,0,0-5.74-8.82c-4.43-2.85-11.59-3.47-16,1-4.8,4.87-4,13.43,1,18a13.06,13.06,0,0,0,7.81,3.31A12.18,12.18,0,0,0,332.18,191.27Z" transform="translate(-53.34 -144.42)"/><path class="cls-6" d="M200.57,341.05a244.26,244.26,0,0,0-25.16,1.85c-25.81,3.25-29.24,7.87-30.41,10.1-.81,1.53-.73,2.28,0,15.25,1.05,18.69,1.88,19.95,3,22.75,4,10,17,8,17,8s29.78-5.67,74.39.16c0,0,8.61,1.84,13.61-8.16,0,0,6-33,3-38S243.14,343.1,200.57,341.05Z" transform="translate(-53.34 -144.42)"/><path class="cls-6" d="M275.5,118.5" transform="translate(-53.34 -144.42)"/><line class="cls-6" x1="23.35" y1="46.38" x2="27.14" y2="63.69"/><path class="cls-6" d="M323.5,193.5q-2.21,8.63-4.42,17.25" transform="translate(-53.34 -144.42)"/><path class="cls-1" d="M500.5,164.5" transform="translate(-53.34 -144.42)"/><path class="cls-4" d="M508.5,223.5" transform="translate(-53.34 -144.42)"/><path class="cls-3" d="M201.5,496.5c-47.5-.53-105.8,6.33-106,15-.19,8.37,53.71,18.14,101,19,51.79.94,108.79-8.59,108.73-17.19S247.26,497,201.5,496.5Z" transform="translate(-53.34 -144.42)"/><path class="cls-8" d="M113,225a334.69,334.69,0,0,0,59.61,12.38c52.71,6,111-.11,113.39-14.38.89-5.19-5.31-13.12-6-14-3.57-4.57-7.65-6.95-13-10a86.74,86.74,0,0,0-16-7,137.8,137.8,0,0,0-27-6,170.58,170.58,0,0,0-40,0c-9,.9-20.61,2.14-35,7-9,3-15.4,5.27-22,11A49.37,49.37,0,0,0,113,225Z" transform="translate(-53.34 -144.42)"/><path class="cls-9" d="M145,356c2.33,5,19.3-3.33,44-3,11.06.15,35.15.47,53,6,2.52.78,10,3.25,13,0a6.46,6.46,0,0,0,1-6c-.58-1.83-3.26-7.22-39-10-13.76-1.07-20.65-1.6-30-1a154.8,154.8,0,0,0-40,8C145.68,351.73,144.17,354.21,145,356Z" transform="translate(-53.34 -144.42)"/><path class="cls-10" d="M132,262c-14,2.56-43.53,8-45.48,9.14-.27.15-1,.59-1,1.18s.62.95,1,1.18l42-2.34Q130.24,266.59,132,262Z" transform="translate(-53.34 -144.42)"/><polygon class="cls-10" points="65.14 158.18 75.61 153.78 76.78 158.68 65.14 158.18"/><path class="cls-10" d="M264.19,262.57c14,2.56,43.53,8,45.48,9.13.27.16,1,.6,1,1.19s-.62.95-1,1.18l-42-2.34Q265.93,267.14,264.19,262.57Z" transform="translate(-53.34 -144.42)"/><polygon class="cls-10" points="224.36 157.75 213.89 153.35 212.72 158.25 224.36 157.75"/><path class="cls-11" d="M257,304.5a201,201,0,0,1-119,0,11.17,11.17,0,0,1-7.44-3.08,11,11,0,0,1-2.61-4.31,10.78,10.78,0,0,1-.47-3.13V271.52A10.52,10.52,0,0,1,138,261a324.56,324.56,0,0,0,60.48,5.5A324.28,324.28,0,0,0,257,261a10.75,10.75,0,0,1,7.44,3.08,10.49,10.49,0,0,1,3.08,7.44V294A10.52,10.52,0,0,1,257,304.5Z" transform="translate(-53.34 -144.42)"/><path class="cls-9" d="M262.72,274.93c-.14-1.14-19.64,2-50.88,2.55-48,.82-78.57-5.3-78.84-3.48-.23,1.57,22.36,7.32,47,9a231.43,231.43,0,0,0,30,0C237.9,281.5,262.89,276.22,262.72,274.93Z" transform="translate(-53.34 -144.42)"/><path class="cls-9" d="M262.72,284.93c-.14-1.14-19.64,2-50.88,2.55-48,.82-78.57-5.3-78.84-3.48-.23,1.57,22.36,7.32,47,9a231.43,231.43,0,0,0,30,0C237.9,291.5,262.89,286.22,262.72,284.93Z" transform="translate(-53.34 -144.42)"/><path class="cls-9" d="M262.72,295.93c-.14-1.14-19.64,2-50.88,2.55-48,.82-78.57-5.3-78.84-3.48-.23,1.57,22.36,7.32,47,9a231.43,231.43,0,0,0,30,0C237.9,302.5,262.89,297.22,262.72,295.93Z" transform="translate(-53.34 -144.42)"/></svg>