<?xml version="1.0" encoding="UTF-8" standalone="no"?>
<!-- Generator: Adobe Illustrator 22.0.0, SVG Export Plug-In . SVG Version: 6.00 Build 0)  -->
<svg id="Layer_1" style="enable-background:new 0 0 149.1 60" xmlns="http://www.w3.org/2000/svg" xml:space="preserve" viewBox="0 0 149.1 60" version="1.1" y="0px" x="0px" xmlns:xlink="http://www.w3.org/1999/xlink">
<style type="text/css">
	.st0{fill:#002E6E;}
	.st1{clip-path:url(#SVGID_2_);fill:#FFFFFF;}
	.st2{clip-path:url(#SVGID_2_);fill:#002E6E;}
	.st3{clip-path:url(#SVGID_2_);fill:#F7941E;}
</style>
<rect x="0" height="48" class="st0" width="149"/>
	<defs>
		<rect id="SVGID_1_" width="149.1" height="60"/>
	</defs>
	<clipPath id="SVGID_2_">
		<use xlink:href="#SVGID_1_"/>
	</clipPath>
	<path class="st1" d="m60.5 16.8c-0.1 0.4-0.1 0.8-0.5 0.9h-0.3c-0.1 0-0.2 0-0.2 0.1s0.1 0.1 0.2 0.1h1.1 1.2c0.2 0 0.3 0 0.3-0.1s-0.1-0.1-0.2-0.1-0.3 0-0.5-0.1c-0.2 0-0.3-0.1-0.3-0.4v-0.5l0.6-4.4c0.4 0.8 1.1 2.2 1.2 2.5s1 2 1.3 2.5c0.2 0.3 0.3 0.6 0.4 0.6s0.2-0.1 0.4-0.6l2.4-5.1 0.7 4.9c0 0.3 0 0.5-0.1 0.5s-0.1 0.1-0.1 0.1c0 0.1 0.1 0.1 0.3 0.1 0.4 0 2 0.1 2.3 0.1 0.2 0 0.3 0 0.3-0.1s-0.1-0.1-0.2-0.1-0.4 0-0.7-0.1-0.4-0.4-0.5-1.1l-1-6.9c0-0.2-0.1-0.3-0.2-0.3s-0.2 0.1-0.2 0.3l-3 6.4-3-6.3c-0.1-0.3-0.2-0.3-0.3-0.3s-0.2 0.1-0.2 0.3l-1.2 7.1z"/>
	<path class="st1" d="m72.9 14.7c0 1.1 0 2-0.1 2.4 0 0.3-0.1 0.5-0.3 0.6h-0.4c-0.1 0-0.2 0-0.2 0.1s0.1 0.1 0.2 0.1h1.4 1.7c0.1 0 0.2 0 0.2-0.1s-0.1-0.1-0.2-0.1h-0.6c-0.3 0-0.4-0.2-0.4-0.5v-2.4-2-2.4c0-0.4 0.1-0.6 0.4-0.6h0.3c0.1 0 0.2 0 0.2-0.1s-0.1-0.1-0.2-0.1h-1.4-1.5c-0.2 0-0.3 0-0.3 0.1s0.1 0.1 0.2 0.1h0.4c0.2 0.1 0.4 0.2 0.4 0.6v2.4 1.9z"/>
	<path class="st1" d="m78.5 11.7c0.2 0.2 1.5 1.6 2.7 2.8l3.3 3.3c0.1 0.1 0.3 0.2 0.4 0.2s0.1-0.1 0.1-0.3l0.1-7c0-0.6 0.1-0.9 0.4-0.9h0.3c0.1 0 0.2 0 0.2-0.1s-0.1-0.1-0.3-0.1h-1.1-1.4c-0.2 0-0.3 0-0.3 0.1s0 0.1 0.2 0.1 0.4 0 0.6 0.1c0.3 0.1 0.4 0.3 0.4 1l0.1 5h-0.1c-0.2-0.2-1.7-1.8-2.5-2.5-1.6-1.6-3.3-3.4-3.5-3.6s-0.3-0.3-0.4-0.3-0.1 0.2-0.1 0.4l-0.1 6.6c0 1-0.1 1.3-0.3 1.4-0.2 0-0.4 0.1-0.5 0.1s-0.2 0-0.2 0.1 0.1 0.1 0.2 0.1h1.2 1.4c0.2 0 0.3 0 0.3-0.1s-0.1-0.1-0.2-0.1c-0.2 0-0.4 0-0.6-0.1s-0.4-0.4-0.4-1.2l0.1-5z"/>
	<path class="st1" d="m88.7 14.7c0 1.1 0 2-0.1 2.4 0 0.3-0.1 0.5-0.3 0.6h-0.4c-0.1 0-0.2 0-0.2 0.1s0.1 0.1 0.2 0.1h1.4 1.7c0.1 0 0.2 0 0.2-0.1s-0.1-0.1-0.2-0.1h-0.6c-0.3 0-0.4-0.2-0.4-0.5v-2.4-2-2.4c0-0.4 0.1-0.6 0.4-0.6h0.3c0.1 0 0.2 0 0.2-0.1s-0.1-0.1-0.2-0.1h-1.4-1.5c-0.2 0-0.3 0-0.3 0.1s0.1 0.1 0.2 0.1h0.4c0.2 0.1 0.4 0.2 0.4 0.6v2.4 1.9z"/>
	<path class="st1" d="m94.8 18.1c0.6 0 1.2-0.1 1.8-0.5 0.8-0.5 1.1-1.3 1.1-1.9 0-1.1-0.5-1.8-1.8-2.8l-0.3-0.2c-0.9-0.7-1.2-1.1-1.2-1.6 0-0.7 0.5-1.2 1.3-1.2 0.7 0 1 0.3 1.2 0.5 0.2 0.3 0.3 0.6 0.3 0.7s0 0.2 0.1 0.2 0.1-0.1 0.1-0.3v-1.3c0-0.1-0.1-0.1-0.2-0.1-0.3-0.1-0.8-0.2-1.5-0.2-1.6 0-2.6 0.9-2.6 2.1 0 0.9 0.4 1.7 1.7 2.6l0.5 0.4c0.9 0.7 1.1 1.2 1.1 1.8s-0.5 1.3-1.5 1.3c-0.7 0-1.4-0.3-1.6-1.1-0.1-0.2-0.1-0.4-0.1-0.6 0-0.1 0-0.2-0.1-0.2s-0.1 0.1-0.1 0.3-0.1 0.8-0.1 1.5c0 0.2 0 0.3 0.2 0.4 0.5 0.1 1 0.2 1.7 0.2"/>
	<path class="st1" d="m101.8 14.7c0 1 0 1.9-0.1 2.4 0 0.3-0.1 0.6-0.3 0.6h-0.4c-0.1 0-0.2 0-0.2 0.1s0.1 0.1 0.2 0.1h1.4 1.8c0.1 0 0.2 0 0.2-0.1s-0.1-0.1-0.2-0.1h-0.6c-0.3 0-0.4-0.3-0.4-0.6-0.1-0.5-0.1-1.4-0.1-2.4v-4.6h1.4c1 0 1.3 0.3 1.3 0.6v0.1c0 0.2 0 0.2 0.1 0.2s0.1-0.1 0.1-0.2v-1.3c0-0.2 0-0.2-0.1-0.2s-0.4 0.1-1.1 0.1h-4.4c-0.4 0-0.8 0-1.1-0.1-0.3 0-0.4-0.1-0.5-0.1s-0.1 0.1-0.1 0.2-0.2 1.1-0.2 1.3c0 0.1 0 0.2 0.1 0.2s0.1 0 0.1-0.1 0.1-0.2 0.2-0.4c0.2-0.2 0.4-0.3 1.1-0.3h1.7v4.6z"/>
	<path class="st1" d="m109.7 10.2c0-0.1 0-0.1 0.1-0.2h0.6c0.7 0 1.7 0.5 1.7 2 0 0.9-0.3 1.4-0.7 1.7-0.2 0.1-0.3 0.2-0.8 0.2-0.3 0-0.6 0-0.8-0.1-0.1 0-0.1-0.1-0.1-0.2v-3.4zm-1.3 4.5c0 1 0 1.9-0.1 2.4 0 0.3-0.1 0.6-0.3 0.6h-0.4c-0.1 0-0.2 0-0.2 0.1s0.1 0.1 0.2 0.1h1.4 1.6c0.1 0 0.2 0 0.2-0.1s0-0.1-0.1-0.1h-0.5c-0.3 0-0.4-0.3-0.4-0.6-0.1-0.5-0.1-1.4-0.1-2.4v-0.2c0-0.1 0-0.1 0.1-0.1h1c0.1 0 0.1 0 0.2 0.1 0.1 0.2 0.7 0.9 1.1 1.5 0.6 0.9 1 1.4 1.5 1.6 0.3 0.2 0.6 0.2 1.2 0.2h1.1c0.1 0 0.2 0 0.2-0.1s0-0.1-0.1-0.1h-0.3c-0.2 0-0.6-0.1-1.3-0.8s-1.4-1.7-2.4-2.9c1.1-0.9 1.5-1.7 1.5-2.5 0-0.7-0.4-1.3-0.8-1.5-0.6-0.4-1.4-0.5-2.1-0.5h-1.6-1.5c-0.2 0-0.2 0-0.2 0.1s0.1 0.1 0.2 0.1h0.4c0.4 0.1 0.5 0.3 0.5 0.6v2.4 2.1z"/>
	<path class="st1" d="m117.9 15.9v1.1c0 0.3-0.1 0.6-0.3 0.6h-0.4c-0.1 0-0.2 0-0.2 0.1s0.1 0.1 0.2 0.1h1.4 1.7c0.1 0 0.2 0 0.2-0.1s-0.1-0.1-0.2-0.1h-0.6c-0.3 0-0.4-0.3-0.5-0.6v-1.1-0.9c0-0.4 0-0.7 0.2-1.1 0.2-0.5 1.8-3.1 2.1-3.6 0.2-0.3 0.4-0.4 0.6-0.5s0.4-0.1 0.5-0.1 0.2 0 0.2-0.1-0.1-0.1-0.2-0.1h-1.2-1.1c-0.1 0-0.2 0-0.2 0.1s0.1 0.1 0.2 0.1c0.2 0 0.2 0.2 0.2 0.3s0 0.3-0.2 0.6-1.6 2.8-1.7 3.1c-0.2-0.3-1.7-3-1.9-3.3-0.1-0.2-0.1-0.3-0.1-0.4s0.1-0.2 0.2-0.2c0.2 0 0.2-0.1 0.2-0.1 0-0.1-0.1-0.1-0.2-0.1h-1.2-1.4c-0.1 0-0.2 0-0.2 0.1s0.1 0.1 0.2 0.1 0.3 0.1 0.5 0.1c0.2 0.1 0.5 0.4 0.8 0.8 0.4 0.6 1.9 3 2 3.2 0.1 0.3 0.3 0.6 0.3 1.2v0.8z"/>
	<path class="st1" d="m131.4 17.5c-2.1 0-3.4-1.8-3.4-4.2 0-2.8 1.5-3.5 2.7-3.5 1.8 0 3.3 1.6 3.3 4.1 0 3.2-1.8 3.6-2.6 3.6m-0.5 0.6c2.8 0 4.6-2 4.6-4.6s-1.7-4.2-4.5-4.2c-3.4 0-4.6 2.5-4.6 4.4 0 2 1.3 4.4 4.5 4.4"/>
	<path class="st1" d="m139.3 13.8c0-0.1 0-0.1 0.1-0.1h1.7c0.3 0 0.5 0.2 0.6 0.4 0 0.1 0.1 0.3 0.1 0.3 0 0.1 0 0.2 0.1 0.2s0.1-0.1 0.1-0.2v-0.8c0-0.3 0.1-0.6 0.1-0.7s0-0.1-0.1-0.1c-0.1 0-0.1 0-0.1 0.1-0.1 0.1-0.3 0.2-0.5 0.2h-0.5-1.4c-0.1 0-0.1 0-0.1-0.1v-2.8c0-0.1 0-0.2 0.1-0.2h1.7c0.4 0 0.7 0.2 0.7 0.3 0.1 0.2 0.1 0.3 0.1 0.4s0 0.2 0.1 0.2 0.1-0.1 0.1-0.2 0-0.8 0.1-0.9c0-0.3 0.1-0.4 0.1-0.5s0-0.1-0.1-0.1-0.1 0-0.2 0.1h-0.5-2.9-1.6c-0.2 0-0.3 0-0.3 0.1s0.1 0.1 0.2 0.1h0.4c0.4 0.1 0.5 0.3 0.5 0.6v2.4 2c0 1.1 0 1.9-0.1 2.4 0 0.3-0.1 0.6-0.3 0.6h-0.4c-0.1 0-0.2 0-0.2 0.1s0.1 0.1 0.2 0.1h1.4 1.7c0.2 0 0.2 0 0.2-0.1s0-0.1-0.2-0.1h-0.6c-0.3 0-0.4-0.3-0.4-0.6-0.1-0.5-0.1-1.3-0.1-2.4v-0.7z"/>
	<path class="st1" d="m63.8 29.6c-0.1 0-0.1 0-0.1-0.1v-0.4-3.9c0-0.6 0.2-1 0.7-1.1 0.2 0 0.4-0.1 0.5-0.1 0.2 0 0.3 0 0.3-0.2 0-0.1-0.1-0.2-0.4-0.2-0.7 0-1.9 0.1-2.3 0.1-0.5 0-1.7-0.1-2.7-0.1-0.3 0-0.4 0-0.4 0.2 0 0.1 0.1 0.2 0.3 0.2 0.3 0 0.6 0 0.7 0.1 0.6 0.1 0.8 0.4 0.8 1.1v3.9 3.2c0 1.7 0 3.1-0.1 3.9-0.1 0.5-0.2 0.9-0.5 1-0.2 0-0.4 0.1-0.7 0.1-0.2 0-0.3 0.1-0.3 0.1 0 0.1 0.1 0.2 0.4 0.2 0.7 0 1.9-0.1 2.3-0.1 0.5 0 1.7 0.1 2.9 0.1 0.2 0 0.4-0.1 0.4-0.2s-0.1-0.1-0.3-0.1c-0.3 0-0.7 0-0.9-0.1-0.6-0.1-0.7-0.5-0.7-1-0.1-0.8-0.1-2.2-0.1-3.9v-1.6c0-0.1 0.1-0.1 0.1-0.1h7c0.1 0 0.1 0 0.1 0.1v1.6c0 1.7 0 3.1-0.1 3.9-0.1 0.5-0.2 0.9-0.5 1-0.2 0-0.4 0.1-0.7 0.1-0.2 0-0.3 0.1-0.3 0.1 0 0.1 0.1 0.2 0.4 0.2 0.7 0 1.9-0.1 2.3-0.1 0.5 0 1.7 0.1 2.9 0.1 0.2 0 0.4-0.1 0.4-0.2s-0.1-0.1-0.3-0.1c-0.3 0-0.7 0-0.9-0.1-0.6-0.1-0.7-0.5-0.7-1-0.1-0.8-0.1-2.2-0.1-3.9v-3.2-3.9c0-0.6 0.2-1 0.7-1.1 0.2 0 0.4-0.1 0.5-0.1 0.2 0 0.3 0 0.3-0.2 0-0.1-0.1-0.2-0.4-0.2-0.7 0-1.9 0.1-2.3 0.1-0.5 0-1.7-0.1-2.7-0.1-0.3 0-0.4 0-0.4 0.2 0 0.1 0.1 0.2 0.3 0.2 0.3 0 0.6 0 0.7 0.1 0.6 0.1 0.8 0.4 0.8 1.1v3.9 0.4c0 0.1-0.1 0.1-0.1 0.1h-6.8z"/>
	<path class="st1" d="m79.3 32.4c0 1.7 0 3.1-0.1 3.9-0.1 0.5-0.2 0.9-0.5 1-0.2 0-0.4 0.1-0.7 0.1-0.2 0-0.3 0.1-0.3 0.1 0 0.1 0.1 0.2 0.4 0.2 0.7 0 1.9-0.1 2.3-0.1 1.1 0 2.3 0.1 5.1 0.1 0.7 0 0.9 0 1-0.5 0.1-0.4 0.2-1.6 0.2-2 0-0.2 0-0.3-0.1-0.3s-0.2 0.1-0.2 0.3c-0.1 0.8-0.3 1.1-0.8 1.4-0.5 0.2-1.3 0.2-1.7 0.2-1.9 0-2.2-0.3-2.2-1.5v-2.9-1.5c0-0.1 0-0.2 0.1-0.2 0.4 0 2.3 0 2.6 0.1 0.7 0.1 0.9 0.3 1 0.7 0.1 0.2 0.1 0.5 0.1 0.7 0 0.1 0 0.2 0.2 0.2s0.2-0.2 0.2-0.4c0-0.1 0-0.9 0.1-1.2 0.1-0.9 0.1-1.2 0.1-1.3s-0.1-0.1-0.1-0.1c-0.1 0-0.2 0.1-0.3 0.2-0.2 0.2-0.4 0.2-0.9 0.3h-2.9c-0.1 0-0.1-0.1-0.1-0.2v-4.7c0-0.1 0-0.2 0.1-0.2 0.4 0 2.3 0 2.6 0.1 0.9 0.1 1.1 0.3 1.2 0.7 0.1 0.2 0.1 0.5 0.1 0.7s0 0.3 0.2 0.3c0.1 0 0.2-0.1 0.2-0.2 0-0.2 0.1-1 0.1-1.2 0.1-0.8 0.1-1.1 0.1-1.2s0-0.2-0.1-0.2-0.2 0.1-0.3 0.1-0.4 0.1-0.8 0.1h-4.6c-0.5 0-1.7-0.1-2.7-0.1-0.3 0-0.4 0-0.4 0.2 0 0.1 0.1 0.2 0.3 0.2 0.3 0 0.6 0 0.7 0.1 0.6 0.1 0.8 0.4 0.8 1.1v3.9 3z"/>
	<path class="st1" d="m92.4 32c-0.1 0-0.1-0.1-0.1-0.1l1.7-4.5c0-0.1 0.1-0.2 0.1-0.2 0.1 0 0.1 0.1 0.1 0.2l1.7 4.6c0 0.1 0 0.1-0.1 0.1h-3.4zm3.7 0.9c0.1 0 0.1 0 0.2 0.1l1.5 3.9c0.1 0.2 0 0.4-0.2 0.4s-0.3 0.1-0.3 0.2 0.2 0.1 0.6 0.1h3.5c0.7 0 0.8 0 0.8-0.2 0-0.1-0.1-0.1-0.2-0.1-0.2 0-0.5 0-0.8-0.1-0.4-0.1-0.9-0.3-1.6-2-1.2-2.7-4.1-10.2-4.5-11.2-0.2-0.4-0.3-0.6-0.5-0.6s-0.3 0.2-0.5 0.7l-4.6 11.6c-0.4 0.9-0.7 1.5-1.6 1.7h-0.6c-0.1 0-0.2 0-0.2 0.1s0.1 0.2 0.3 0.2c1 0 2-0.1 2.2-0.1 0.6 0 1.4 0.1 2 0.1 0.2 0 0.3 0 0.3-0.2 0-0.1-0.1-0.1-0.3-0.1h-0.3c-0.6 0-0.7-0.2-0.7-0.6 0-0.2 0.1-0.7 0.3-1.1l1-2.6c0-0.1 0.1-0.1 0.2-0.1h4z"/>
	<path class="st1" d="m106.9 29.1v-3.9c0-0.6 0.2-1 0.7-1.1 0.2 0 0.5-0.1 0.7-0.1s0.3 0 0.3-0.2c0-0.1-0.1-0.2-0.4-0.2-0.7 0-2.1 0.1-2.5 0.1-0.5 0-1.7-0.1-2.5-0.1-0.3 0-0.4 0-0.4 0.2 0 0.1 0.1 0.2 0.3 0.2s0.5 0 0.6 0.1c0.6 0.1 0.8 0.4 0.8 1.1v3.9 3.2c0 1.7 0 3.2-0.1 3.9-0.1 0.5-0.2 0.9-0.5 1-0.2 0-0.4 0.1-0.7 0.1-0.2 0-0.3 0.1-0.3 0.1 0 0.1 0.1 0.2 0.4 0.2 0.7 0 1.9-0.1 2.3-0.1 1.5 0 2.7 0.1 5.4 0.1 1 0 1.1-0.1 1.2-0.5 0.1-0.5 0.3-1.9 0.3-2.1s0-0.3-0.1-0.3-0.2 0.1-0.2 0.3c0 0.4-0.3 0.9-0.5 1.1-0.5 0.5-1.2 0.5-2.2 0.5-1.4 0-1.9-0.1-2.2-0.4-0.4-0.3-0.4-1.6-0.4-4v-3.1z"/>
	<path class="st1" d="m117.6 32.4c0 1.7 0 3.1-0.1 3.9-0.1 0.5-0.2 0.9-0.5 1-0.2 0-0.4 0.1-0.7 0.1-0.2 0-0.3 0.1-0.3 0.1 0 0.1 0.1 0.2 0.4 0.2 0.7 0 1.9-0.1 2.3-0.1 0.5 0 1.7 0.1 2.9 0.1 0.2 0 0.3-0.1 0.3-0.2s-0.1-0.1-0.3-0.1c-0.3 0-0.7 0-0.9-0.1-0.6-0.1-0.7-0.5-0.7-1-0.1-0.8-0.1-2.2-0.1-3.9v-7.6l2.3 0.1c1.6 0 2.1 0.6 2.2 1v0.2c0 0.3 0.1 0.4 0.2 0.4s0.1-0.1 0.2-0.3c0-0.5 0.1-1.7 0.1-2.1 0-0.3 0-0.4-0.1-0.4s-0.6 0.2-1.8 0.2h-7.3c-0.6 0-1.3 0-1.8-0.1-0.5 0-0.6-0.2-0.8-0.2-0.1 0-0.2 0.1-0.2 0.3 0 0.1-0.4 1.8-0.4 2.1 0 0.2 0 0.3 0.2 0.3 0.1 0 0.2-0.1 0.2-0.2s0.1-0.4 0.3-0.6c0.3-0.4 0.7-0.5 1.8-0.5l2.7-0.1v7.5z"/>
	<path class="st1" d="m131 29.6c-0.1 0-0.1 0-0.1-0.1v-0.4-3.9c0-0.6 0.2-1 0.7-1.1 0.2 0 0.4-0.1 0.5-0.1 0.2 0 0.3 0 0.3-0.2 0-0.1-0.1-0.2-0.4-0.2-0.7 0-1.9 0.1-2.3 0.1-0.5 0-1.7-0.1-2.7-0.1-0.3 0-0.4 0-0.4 0.2 0 0.1 0.1 0.2 0.3 0.2 0.3 0 0.6 0 0.7 0.1 0.6 0.1 0.8 0.4 0.8 1.1v3.9 3.2c0 1.7 0 3.1-0.1 3.9-0.1 0.5-0.2 0.9-0.5 1-0.2 0-0.4 0.1-0.7 0.1-0.2 0-0.3 0.1-0.3 0.1 0 0.1 0.1 0.2 0.4 0.2 0.7 0 1.9-0.1 2.3-0.1 0.5 0 1.7 0.1 2.9 0.1 0.2 0 0.4-0.1 0.4-0.2s-0.1-0.1-0.3-0.1c-0.3 0-0.7 0-0.9-0.1-0.6-0.1-0.7-0.5-0.7-1-0.1-0.8-0.1-2.2-0.1-3.9v-1.6c0-0.1 0.1-0.1 0.1-0.1h7c0.1 0 0.1 0 0.1 0.1v1.6c0 1.7 0 3.1-0.1 3.9-0.1 0.5-0.2 0.9-0.5 1-0.2 0-0.4 0.1-0.7 0.1-0.2 0-0.3 0.1-0.3 0.1 0 0.1 0.1 0.2 0.4 0.2 0.7 0 1.9-0.1 2.3-0.1 0.5 0 1.7 0.1 2.9 0.1 0.2 0 0.4-0.1 0.4-0.2s-0.1-0.1-0.3-0.1c-0.3 0-0.7 0-0.9-0.1-0.6-0.1-0.7-0.5-0.7-1-0.1-0.8-0.1-2.2-0.1-3.9v-3.2-3.9c0-0.6 0.2-1 0.7-1.1 0.2 0 0.4-0.1 0.5-0.1 0.2 0 0.3 0 0.3-0.2 0-0.1-0.1-0.2-0.4-0.2-0.7 0-1.9 0.1-2.3 0.1-0.5 0-1.7-0.1-2.7-0.1-0.3 0-0.4 0-0.4 0.2 0 0.1 0.1 0.2 0.3 0.2 0.3 0 0.6 0 0.7 0.1 0.6 0.1 0.8 0.4 0.8 1.1v3.9 0.4c0 0.1-0.1 0.1-0.1 0.1h-6.8z"/>
	<path class="st2" d="m60.1 59.1c0 0.3-0.1 0.6-0.3 0.6h-0.2c-0.1 0-0.1 0-0.1 0.1s0.1 0.1 0.1 0.1h0.8 0.8c0.1 0 0.2 0 0.2-0.1l-0.1-0.1h-0.3c-0.1 0-0.2-0.1-0.2-0.2v-0.4l0.4-3.1c0.3 0.6 0.7 1.6 0.8 1.7l0.9 1.8c0.1 0.2 0.2 0.4 0.3 0.4s0.1-0.1 0.3-0.4l1.7-3.5 0.5 3.4v0.3c-0.1 0-0.1 0-0.1 0.1 0 0 0 0.1 0.2 0.1h1.6c0.1 0 0.2 0 0.2-0.1l-0.1-0.1c-0.1 0-0.3 0-0.5-0.1s-0.3-0.3-0.4-0.8l-0.7-4.8c0-0.2-0.1-0.2-0.1-0.2-0.1 0-0.1 0.1-0.2 0.2l-2.1 4.5-2.1-4.4c-0.1-0.2-0.1-0.2-0.2-0.2s-0.1 0.1-0.1 0.2l-1 5z"/>
	<path class="st2" d="m69.6 57.5v0l0.7-2v-0.1 0.1l0.7 1.9h-1.4zm1.6 0.4s0.1 0 0 0l0.7 1.7c0 0.1 0 0.2-0.1 0.2s-0.1 0-0.1 0.1 0.1 0.1 0.2 0.1h1.5c0.3 0 0.4 0 0.4-0.1s0-0.1-0.1-0.1h-0.3c-0.2 0-0.4-0.1-0.7-0.9-0.5-1.2-1.8-4.4-1.9-4.8-0.1-0.2-0.1-0.2-0.2-0.2s-0.1 0.1-0.2 0.3l-2 4.9c-0.2 0.4-0.3 0.7-0.7 0.7h-0.2c-0.1 0-0.1 0-0.1 0.1s0 0.1 0.1 0.1h0.9 0.8c0.1 0 0.1 0 0.1-0.1 0 0 0-0.1-0.1-0.1h-0.1c-0.2 0-0.3-0.1-0.3-0.2s0-0.3 0.1-0.5l0.4-1.1s0-0.1 0.1-0.1h1.8z"/>
	<path class="st2" d="m75.3 55.6c0.2 0.1 1 1.1 1.9 2l2.3 2.3c0.1 0.1 0.2 0.2 0.3 0.2s0.1-0.1 0.1-0.2l0.1-4.9c0-0.4 0.1-0.6 0.3-0.7h0.2c0.1 0 0.1 0 0.1-0.1s-0.1-0.1-0.2-0.1h-0.8-0.9c-0.1 0-0.2 0-0.2 0.1 0 0 0 0.1 0.1 0.1h0.4c0.2 0.1 0.3 0.2 0.3 0.7l0.1 3.5c-0.1-0.1-1.2-1.3-1.7-1.8-1.1-1.1-2.3-2.4-2.4-2.5s-0.2-0.2-0.3-0.2-0.1 0.1-0.1 0.3l-0.1 4.6c0 0.7 0 0.9-0.2 1h-0.4c-0.1 0-0.1 0-0.1 0.1s0.1 0.1 0.2 0.1h0.8 1c0.1 0 0.2 0 0.2-0.1 0 0 0-0.1-0.1-0.1s-0.3 0-0.4-0.1c-0.2-0.1-0.3-0.3-0.3-0.9l-0.2-3.3z"/>
	<path class="st2" d="m83.1 57.5v0l0.7-2v-0.1 0.1l0.7 1.9h-1.4zm1.6 0.4s0.1 0 0 0l0.7 1.7c0 0.1 0 0.2-0.1 0.2s-0.1 0-0.1 0.1 0.1 0.1 0.2 0.1h1.5c0.3 0 0.4 0 0.4-0.1s0-0.1-0.1-0.1h-0.3c-0.2 0-0.4-0.1-0.7-0.9-0.5-1.2-1.8-4.4-1.9-4.8-0.1-0.2-0.1-0.2-0.2-0.2s-0.1 0.1-0.2 0.3l-2 4.9c-0.2 0.4-0.3 0.7-0.7 0.7h-0.2c-0.1 0-0.1 0-0.1 0.1s0 0.1 0.1 0.1h0.9 0.8c0.1 0 0.1 0 0.1-0.1 0 0 0-0.1-0.1-0.1h-0.1c-0.2 0-0.3-0.1-0.3-0.2s0-0.3 0.1-0.5l0.4-1.1s0-0.1 0.1-0.1h1.8z"/>
	<path class="st2" d="m88.9 57.6v1.7c0 0.2-0.1 0.4-0.2 0.4h-0.3c-0.1 0-0.1 0-0.1 0.1s0.1 0.1 0.2 0.1h1 1.2c0.1 0 0.1 0 0.1-0.1 0 0 0-0.1-0.1-0.1h-0.4c-0.2 0-0.3-0.2-0.3-0.4v-1.7-3.2h1c0.7 0 0.9 0.2 0.9 0.4v0.1c0 0.1 0 0.2 0.1 0.2 0 0 0.1 0 0.1-0.1v-0.9c0-0.1 0-0.2-0.1-0.2s-0.2 0.1-0.7 0.1h-3.1-0.8c-0.2 0-0.3-0.1-0.3-0.1s-0.1 0-0.1 0.1-0.2 0.8-0.2 0.9 0 0.1 0.1 0.1c0 0 0.1 0 0.1-0.1s0.1-0.2 0.1-0.3c0.1-0.2 0.3-0.2 0.8-0.2h1.2v3.2z"/>
	<path class="st2" d="m93.4 57.4c0 1.1 0.3 1.7 0.7 2.1 0.6 0.5 1.3 0.5 1.7 0.5 0.5 0 1.1-0.1 1.6-0.6 0.7-0.6 0.7-1.5 0.7-2.4v-0.8-1.7c0-0.3 0.1-0.4 0.3-0.4h0.2c0.1 0 0.1 0 0.1-0.1s-0.1-0.1-0.2-0.1h-0.9-0.9c-0.1 0-0.2 0-0.2 0.1s0 0.1 0.1 0.1h0.3c0.3 0.1 0.3 0.2 0.3 0.4v1.7 1c0 0.8 0 1.5-0.5 1.9-0.3 0.3-0.7 0.4-1.1 0.4-0.3 0-0.6 0-1-0.3s-0.6-0.8-0.6-1.9v-1.1-1.7c0-0.3 0.1-0.4 0.3-0.4h0.2c0.1 0 0.1 0 0.1-0.1s-0.1-0.1-0.2-0.1h-1-1.1c-0.1 0-0.2 0-0.2 0.1s0 0.1 0.1 0.1h0.3c0.3 0.1 0.3 0.2 0.3 0.4v1.7 1.2z"/>
	<path class="st2" d="m104.4 56.5v-0.2-1.7c0-0.3 0.1-0.4 0.3-0.4h0.2c0.1 0 0.1 0 0.1-0.1s-0.1-0.1-0.2-0.1h-1-1.1c-0.1 0-0.2 0-0.2 0.1s0 0.1 0.1 0.1h0.3c0.3 0.1 0.3 0.2 0.3 0.4v1.7 1.4 1.7c0 0.2-0.1 0.4-0.2 0.4h-0.3c-0.1 0-0.1 0-0.1 0.1s0.1 0.1 0.2 0.1h1 1.2c0.1 0 0.2 0 0.2-0.1 0 0 0-0.1-0.1-0.1h-0.4c-0.2 0-0.3-0.2-0.3-0.4v-1.7-0.7h3v0.7 1.7c0 0.2-0.1 0.4-0.2 0.4h-0.3c-0.1 0-0.1 0-0.1 0.1s0.1 0.1 0.2 0.1h1 1.2c0.1 0 0.2 0 0.2-0.1 0 0 0-0.1-0.1-0.1h-0.4c-0.2 0-0.3-0.2-0.3-0.4v-1.7-1.4-1.7c0-0.3 0.1-0.4 0.3-0.4h0.2c0.1 0 0.1 0 0.1-0.1s-0.1-0.1-0.2-0.1h-1-1.1c-0.1 0-0.2 0-0.2 0.1s0 0.1 0.1 0.1h0.3c0.3 0.1 0.3 0.2 0.3 0.4v1.7 0.2 0.1h-3z"/>
	<path class="st2" d="m111.8 57.5c-0.1 0-0.1-0.1 0 0l0.7-2v-0.1 0.1l0.7 1.9h-1.4zm1.6 0.4l0.7 1.7c0 0.1 0 0.2-0.1 0.2s-0.1 0-0.1 0.1 0.1 0.1 0.2 0.1h1.5c0.3 0 0.4 0 0.4-0.1s0-0.1-0.1-0.1h-0.3c-0.2 0-0.4-0.1-0.7-0.9-0.5-1.2-1.7-4.4-1.9-4.8-0.1-0.2-0.1-0.2-0.2-0.2s-0.1 0.1-0.2 0.3l-2 4.9c-0.2 0.4-0.3 0.7-0.7 0.7h-0.2c-0.1 0-0.1 0-0.1 0.1s0 0.1 0.1 0.1h0.9 0.8c0.1 0 0.1 0 0.1-0.1 0 0 0-0.1-0.1-0.1h-0.1c-0.2 0-0.3-0.1-0.3-0.2s0-0.3 0.1-0.5l0.4-1.1s0-0.1 0.1-0.1h1.8z"/>
	<path class="st2" d="m116.7 57.4c0 1.1 0.3 1.7 0.7 2.1 0.6 0.5 1.3 0.5 1.7 0.5 0.5 0 1.1-0.1 1.6-0.6 0.7-0.6 0.7-1.5 0.7-2.4v-0.8-1.7c0-0.3 0.1-0.4 0.3-0.4h0.2c0.1 0 0.1 0 0.1-0.1s-0.1-0.1-0.2-0.1h-0.9-0.9c-0.1 0-0.2 0-0.2 0.1s0 0.1 0.1 0.1h0.3c0.3 0.1 0.3 0.2 0.3 0.4v1.7 1c0 0.8 0 1.5-0.5 1.9-0.3 0.3-0.7 0.4-1.1 0.4-0.3 0-0.6 0-1-0.3s-0.6-0.8-0.6-1.9v-1.1-1.7c0-0.3 0.1-0.4 0.3-0.4h0.2c0.1 0 0.1 0 0.1-0.1s-0.1-0.1-0.2-0.1h-1-1.1c-0.1 0-0.2 0-0.2 0.1s0 0.1 0.1 0.1h0.3c0.3 0.1 0.3 0.2 0.3 0.4v1.7 1.2z"/>
	<path class="st2" d="m126.6 59.6c-1.5 0-2.4-1.3-2.4-2.9 0-1.9 1-2.4 1.9-2.4 1.3 0 2.3 1.1 2.3 2.8 0.1 2.3-1.2 2.5-1.8 2.5m-0.3 0.4c2 0 3.2-1.4 3.2-3.2s-1.2-2.9-3.2-2.9c-2.3 0-3.2 1.7-3.2 3.1 0.1 1.3 1 3 3.2 3"/>
	<path class="st2" d="m131.9 54.5c0-0.1 0-0.1 0.1-0.1h0.4c0.5 0 1.2 0.3 1.2 1.4 0 0.6-0.2 1-0.5 1.2-0.1 0.1-0.2 0.1-0.6 0.1-0.2 0-0.4 0-0.6-0.1-0.1 0-0.1-0.1-0.1-0.1v-2.4zm-0.9 3.1v1.7c0 0.2-0.1 0.4-0.2 0.4h-0.3c-0.1 0-0.1 0-0.1 0.1s0.1 0.1 0.2 0.1h1 1.2c0.1 0 0.2 0 0.2-0.1 0 0 0-0.1-0.1-0.1h-0.4c-0.2 0-0.3-0.2-0.3-0.4v-1.7-0.1s0-0.1 0.1-0.1h0.7c0.1 0 0.1 0 0.1 0.1 0.1 0.1 0.5 0.6 0.8 1.1 0.4 0.6 0.7 1 1.1 1.1 0.2 0.1 0.4 0.1 0.8 0.1h0.7c0.1 0 0.1 0 0.1-0.1 0 0 0-0.1-0.1-0.1h-0.2c-0.1 0-0.4-0.1-0.9-0.5-0.5-0.5-1-1.2-1.7-2.1 0.8-0.6 1-1.2 1-1.7s-0.3-0.9-0.5-1.1c-0.4-0.3-0.9-0.3-1.4-0.3h-1.1-1.1c-0.1 0-0.2 0-0.2 0.1s0 0.1 0.1 0.1h0.3c0.3 0.1 0.3 0.2 0.3 0.4v1.7 1.4z"/>
	<path class="st2" d="m138.2 57.5c-0.1 0-0.1-0.1 0 0l0.7-2v-0.1 0.1l0.7 1.9h-1.4zm1.6 0.4l0.7 1.7c0 0.1 0 0.2-0.1 0.2s-0.1 0-0.1 0.1 0.1 0.1 0.2 0.1h1.5c0.3 0 0.4 0 0.4-0.1s0-0.1-0.1-0.1h-0.3c-0.2 0-0.4-0.1-0.7-0.9-0.5-1.2-1.8-4.4-1.9-4.8-0.1-0.2-0.1-0.2-0.2-0.2s-0.1 0.1-0.2 0.3l-2 4.9c-0.2 0.4-0.3 0.7-0.7 0.7h-0.2c-0.1 0-0.1 0-0.1 0.1s0 0.1 0.1 0.1h0.9 0.8c0.1 0 0.1 0 0.1-0.1 0 0 0-0.1-0.1-0.1h-0.1c-0.2 0-0.3-0.1-0.3-0.2s0-0.3 0.1-0.5l0.4-1.1s0-0.1 0.1-0.1h1.8z"/>
	<path class="st2" d="m97.2 52.2h0.1l0.1-0.3c0-0.1 0-0.1-0.1-0.1h-2.8c-0.1 0-0.1 0-0.1 0.1l-0.1 0.3s0 0.1 0.1 0.1h2.8z"/>
	<path class="st3" d="m6.6 40.3h3.6c5.7-12.5 14.9-16.7 21.3-16.7 6.5 0 8.9 3.9 8.9 7.2 0 5-4.7 7-4.7 7s0.8-0.3 0.7-2.2c0-2.1-1.5-2.9-3.9-2.9-2.3 0-5.2 1.8-5.2 4.5 0 2.5 1.7 4.4 5.3 4.4 6.8 0 15.4-4.8 15.4-11.9 0-6.4-5.6-10.8-12.3-11.1-13-0.6-21 9.4-21 9.4 9.1-17.5 30.8-28 30.8-28h-15.1s-18.5 17.5-23.8 40.3"/>
</svg>
