<svg width="56" height="56" viewBox="0 0 56 56" fill="none" xmlns="http://www.w3.org/2000/svg">
<path d="M41.6018 40.4017L39.5634 38.3633" stroke="#333333" stroke-linecap="round" stroke-linejoin="round"/>
<path d="M41.3217 36.606L43.359 38.6438" stroke="#333333" stroke-linecap="round" stroke-linejoin="round"/>
<path d="M39.244 38.5992C43.4665 35.6538 44.5018 29.8432 41.5565 25.6206C38.6112 21.3981 32.8005 20.3628 28.5779 23.3081C24.3554 26.2534 23.3201 32.0641 26.2654 36.2867C29.2107 40.5092 35.0214 41.5445 39.244 38.5992Z" stroke="#333333" stroke-linecap="round" stroke-linejoin="round"/>
<path d="M38.892 25.9734C39.877 26.9585 40.5479 28.2136 40.8197 29.5799C41.0915 30.9463 40.952 32.3625 40.4188 33.6496C39.8857 34.9366 38.9829 36.0367 37.8246 36.8107C36.6663 37.5846 35.3044 37.9977 33.9113 37.9977C32.5182 37.9977 31.1564 37.5846 29.9981 36.8107C28.8397 36.0367 27.9369 34.9366 27.4038 33.6496C26.8707 32.3625 26.7312 30.9463 27.003 29.5799C27.2748 28.2136 27.9456 26.9585 28.9307 25.9734C29.5847 25.3193 30.3612 24.8004 31.2158 24.4464C32.0704 24.0924 32.9863 23.9102 33.9113 23.9102C34.8363 23.9102 35.7523 24.0924 36.6069 24.4464C37.4615 24.8004 38.2379 25.3193 38.892 25.9734V25.9734Z" stroke="#333333" stroke-linecap="round" stroke-linejoin="round"/>
<path d="M49.9402 46.5645L49.5219 46.9822C49.3762 47.128 49.2033 47.2437 49.0129 47.3226C48.8226 47.4015 48.6185 47.4421 48.4125 47.4421C48.2064 47.4421 48.0024 47.4015 47.812 47.3226C47.6217 47.2437 47.4488 47.128 47.3031 46.9822L41.5318 41.2109C41.4832 41.1623 41.4447 41.1047 41.4184 41.0412C41.3921 40.9777 41.3785 40.9097 41.3785 40.841C41.3785 40.7723 41.3921 40.7043 41.4184 40.6408C41.4447 40.5774 41.4832 40.5197 41.5318 40.4711L43.4291 38.5739C43.5271 38.4759 43.6601 38.4209 43.7987 38.4209C43.9372 38.4209 44.0702 38.4759 44.1683 38.5739L49.9407 44.3463C50.0864 44.492 50.2019 44.6649 50.2807 44.8552C50.3596 45.0455 50.4001 45.2495 50.4 45.4555C50.4 45.6615 50.3594 45.8655 50.2804 46.0558C50.2015 46.246 50.0859 46.4189 49.9402 46.5645Z" stroke="#333333" stroke-linecap="round" stroke-linejoin="round"/>
<path d="M26.656 39.5824H7.25478C6.8159 39.5824 6.39499 39.4081 6.08466 39.0977C5.77432 38.7874 5.59998 38.3665 5.59998 37.9276V14.7632C5.59998 14.3243 5.77432 13.9034 6.08466 13.5931C6.39499 13.2827 6.8159 13.1084 7.25478 13.1084H10.15" stroke="#333333" stroke-linecap="round" stroke-linejoin="round"/>
<path d="M29.176 13.1084H32.0718C32.5106 13.1085 32.9313 13.283 33.2415 13.5933C33.5518 13.9036 33.726 14.3244 33.726 14.7632V19.7326" stroke="#333333" stroke-linecap="round" stroke-linejoin="round"/>
<path d="M20.9053 13.1084H26.6962" stroke="#333333" stroke-linecap="round" stroke-linejoin="round"/>
<path d="M12.6319 13.1084H18.4234" stroke="#333333" stroke-linecap="round" stroke-linejoin="round"/>
<path d="M12.6319 16.0043C12.6319 16.3334 12.5011 16.649 12.2684 16.8818C12.0357 17.1145 11.72 17.2452 11.3909 17.2452C11.0618 17.2452 10.7462 17.1145 10.5134 16.8818C10.2807 16.649 10.15 16.3334 10.15 16.0043V9.80004C10.15 9.47092 10.2807 9.15528 10.5134 8.92255C10.7462 8.68983 11.0618 8.55908 11.3909 8.55908C11.72 8.55908 12.0357 8.68983 12.2684 8.92255C12.5011 9.15528 12.6319 9.47092 12.6319 9.80004V16.0043Z" stroke="#333333" stroke-linecap="round" stroke-linejoin="round"/>
<path d="M20.9053 16.0043C20.9053 16.3334 20.7745 16.649 20.5418 16.8818C20.3091 17.1145 19.9934 17.2452 19.6643 17.2452C19.3352 17.2452 19.0195 17.1145 18.7868 16.8818C18.5541 16.649 18.4233 16.3334 18.4233 16.0043V9.80004C18.4233 9.47092 18.5541 9.15528 18.7868 8.92255C19.0195 8.68983 19.3352 8.55908 19.6643 8.55908C19.9934 8.55908 20.3091 8.68983 20.5418 8.92255C20.7745 9.15528 20.9053 9.47092 20.9053 9.80004V16.0043Z" stroke="#333333" stroke-linecap="round" stroke-linejoin="round"/>
<path d="M29.176 16.0043C29.176 16.3334 29.0453 16.649 28.8126 16.8818C28.5798 17.1145 28.2642 17.2452 27.9351 17.2452C27.606 17.2452 27.2903 17.1145 27.0576 16.8818C26.8249 16.649 26.6941 16.3334 26.6941 16.0043V9.80004C26.6941 9.47092 26.8249 9.15528 27.0576 8.92255C27.2903 8.68983 27.606 8.55908 27.9351 8.55908C28.2642 8.55908 28.5798 8.68983 28.8126 8.92255C29.0453 9.15528 29.176 9.47092 29.176 9.80004V16.0043Z" stroke="#333333" stroke-linecap="round" stroke-linejoin="round"/>
</svg>
