<?xml version="1.0" encoding="utf-8"?>
<!-- Generator: Adobe Illustrator 25.4.1, SVG Export Plug-In . SVG Version: 6.00 Build 0)  -->
<svg version="1.1" id="Layer_1" xmlns="http://www.w3.org/2000/svg" xmlns:xlink="http://www.w3.org/1999/xlink" x="0px" y="0px"
	 viewBox="0 0 56 56" style="enable-background:new 0 0 56 56;" xml:space="preserve">
<style type="text/css">
	.st0{fill:none;stroke:#333333;stroke-linecap:round;stroke-linejoin:round;}
	.st1{fill:#333333;stroke:#333333;stroke-linecap:round;stroke-linejoin:round;}
	.st2{fill:#FFFFFF;stroke:#333333;stroke-linecap:round;stroke-linejoin:round;}
</style>
<path class="st0" d="M41.6,40.4l-2-2"/>
<path class="st0" d="M41.3,36.6l2,2"/>
<path class="st1" d="M39.2,38.6c4.2-2.9,5.3-8.8,2.3-13c-2.9-4.2-8.8-5.3-13-2.3c-4.2,2.9-5.3,8.8-2.3,13
	C29.2,40.5,35,41.5,39.2,38.6z"/>
<path class="st2" d="M38.9,26c1,1,1.7,2.2,1.9,3.6c0.3,1.4,0.1,2.8-0.4,4.1c-0.5,1.3-1.4,2.4-2.6,3.2c-1.2,0.8-2.5,1.2-3.9,1.2
	s-2.8-0.4-3.9-1.2c-1.2-0.8-2.1-1.9-2.6-3.2c-0.5-1.3-0.7-2.7-0.4-4.1c0.3-1.4,0.9-2.6,1.9-3.6c0.7-0.7,1.4-1.2,2.3-1.5
	c0.9-0.4,1.8-0.5,2.7-0.5s1.8,0.2,2.7,0.5S38.2,25.3,38.9,26L38.9,26z"/>
<path class="st1" d="M49.9,46.6L49.5,47c-0.1,0.1-0.3,0.3-0.5,0.3c-0.2,0.1-0.4,0.1-0.6,0.1c-0.2,0-0.4,0-0.6-0.1
	c-0.2-0.1-0.4-0.2-0.5-0.3l-5.8-5.8c0,0-0.1-0.1-0.1-0.2s0-0.1,0-0.2s0-0.1,0-0.2c0-0.1,0.1-0.1,0.1-0.2l1.9-1.9
	c0.1-0.1,0.2-0.2,0.4-0.2c0.1,0,0.3,0.1,0.4,0.2l5.8,5.8c0.1,0.1,0.3,0.3,0.3,0.5c0.1,0.2,0.1,0.4,0.1,0.6c0,0.2,0,0.4-0.1,0.6
	C50.2,46.2,50.1,46.4,49.9,46.6z"/>
<path class="st0" d="M26.7,39.6H7.3c-0.4,0-0.9-0.2-1.2-0.5c-0.3-0.3-0.5-0.7-0.5-1.2V14.8c0-0.4,0.2-0.9,0.5-1.2
	c0.3-0.3,0.7-0.5,1.2-0.5h2.9"/>
<path class="st0" d="M29.2,13.1h2.9c0.4,0,0.9,0.2,1.2,0.5c0.3,0.3,0.5,0.7,0.5,1.2v5"/>
<path class="st0" d="M20.9,13.1h5.8"/>
<path class="st0" d="M12.6,13.1h5.8"/>
<path class="st1" d="M20.9,16c0,0.3-0.1,0.6-0.4,0.9c-0.2,0.2-0.5,0.4-0.9,0.4c-0.3,0-0.6-0.1-0.9-0.4c-0.2-0.2-0.4-0.5-0.4-0.9V9.8
	c0-0.3,0.1-0.6,0.4-0.9c0.2-0.2,0.5-0.4,0.9-0.4c0.3,0,0.6,0.1,0.9,0.4c0.2,0.2,0.4,0.5,0.4,0.9V16z"/>
<path class="st1" d="M29.2,16.2c0,0.3-0.1,0.6-0.4,0.9c-0.2,0.2-0.5,0.4-0.9,0.4c-0.3,0-0.6-0.1-0.9-0.4c-0.2-0.2-0.4-0.5-0.4-0.9
	V10c0-0.3,0.1-0.6,0.4-0.9c0.2-0.2,0.5-0.4,0.9-0.4c0.3,0,0.6,0.1,0.9,0.4c0.2,0.2,0.4,0.5,0.4,0.9V16.2z"/>
<path class="st1" d="M12.6,16c0,0.3-0.1,0.6-0.4,0.9c-0.2,0.2-0.5,0.4-0.9,0.4c-0.3,0-0.6-0.1-0.9-0.4c-0.2-0.2-0.4-0.5-0.4-0.9V9.8
	c0-0.3,0.1-0.6,0.4-0.9c0.2-0.2,0.5-0.4,0.9-0.4c0.3,0,0.6,0.1,0.9,0.4c0.2,0.2,0.4,0.5,0.4,0.9V16z"/>
</svg>
