<?xml version="1.0" encoding="utf-8"?>
<!-- Generator: Adobe Illustrator 25.4.1, SVG Export Plug-In . SVG Version: 6.00 Build 0)  -->
<svg version="1.1" id="Layer_1" xmlns="http://www.w3.org/2000/svg" xmlns:xlink="http://www.w3.org/1999/xlink" x="0px" y="0px"
	 viewBox="0 0 56 56" style="enable-background:new 0 0 56 56;" xml:space="preserve">
<style type="text/css">
	.st0{fill:#333333;stroke:#333333;stroke-linecap:round;stroke-linejoin:round;}
	.st1{fill:#FFFFFF;stroke:#333333;stroke-linecap:round;stroke-linejoin:round;}
	.st2{fill:#FFFFFF;stroke:#FFFFFF;stroke-linecap:round;stroke-linejoin:round;}
</style>
<path class="st0" d="M28,2.8l18.5,6.4c1.1,0.4,1.9,1.5,1.9,2.7v19.8C48.4,45.6,28,53.2,28,53.2S7.6,45.6,7.6,31.8V12
	c0-1.2,0.8-2.3,1.9-2.7L28,2.8z"/>
<path class="st1" d="M28,40.8c7.6,0,13.8-6.2,13.8-13.8c0-7.6-6.2-13.8-13.8-13.8S14.2,19.4,14.2,27C14.2,34.7,20.4,40.8,28,40.8z"
	/>
<path class="st0" d="M33.2,22.3c0-2.9-2.4-5.2-5.2-5.2c-2.9,0-5.2,2.4-5.2,5.2v2.4h2.9v-2.4c0-1.3,1.1-2.4,2.4-2.4s2.4,1.1,2.4,2.4
	v2.4h2.9V22.3z"/>
<path class="st0" d="M22.8,24.7h10.5c0.5,0,1,0.4,1,1v9.5c0,0.5-0.4,1-1,1H22.8c-0.5,0-1-0.4-1-1v-9.5
	C21.8,25.1,22.2,24.7,22.8,24.7z"/>
<path class="st2" d="M29.4,29.9c0-0.8-0.6-1.5-1.4-1.5s-1.5,0.6-1.5,1.4c0,0.4,0.2,0.8,0.4,1.1v1.3c0,0.5,0.4,1,1,1s1-0.4,1-1v-1.3
	C29.2,30.7,29.4,30.3,29.4,29.9z"/>
</svg>
