<?xml version="1.0" standalone="no"?>
<!DOCTYPE svg PUBLIC "-//W3C//DTD SVG 20010904//EN"
 "http://www.w3.org/TR/2001/REC-SVG-20010904/DTD/svg10.dtd">
<svg version="1.0" xmlns="http://www.w3.org/2000/svg"
 width="512.000000pt" height="512.000000pt" viewBox="0 0 512.000000 512.000000"
 preserveAspectRatio="xMidYMid meet">
<metadata>
Created by potrace 1.14, written by Peter Selinger 2001-2017
</metadata>
<g transform="translate(0.000000,512.000000) scale(0.100000,-0.100000)"
fill="#000000" stroke="none">
<path d="M2354 4044 c-157 -19 -331 -63 -533 -134 -289 -102 -437 -188 -595
-344 -103 -102 -158 -172 -231 -293 -28 -47 -57 -83 -65 -83 -31 0 -130 -30
-181 -55 -29 -14 -53 -24 -54 -22 -4 6 -35 160 -33 162 2 1 18 10 35 19 114
58 168 185 131 310 -16 53 -84 121 -134 135 -64 18 -134 13 -189 -13 -95 -44
-149 -122 -149 -216 0 -106 64 -196 161 -227 43 -14 55 -22 59 -42 3 -14 14
-60 24 -102 l18 -76 -72 -76 c-140 -147 -210 -349 -176 -512 32 -153 136 -300
325 -458 33 -28 87 -82 121 -121 307 -359 750 -597 1249 -671 247 -36 804 -37
1025 0 426 70 798 263 1110 575 342 343 411 427 461 559 74 197 37 433 -95
605 -32 42 -36 52 -28 75 6 14 18 61 27 104 10 43 23 80 29 82 6 1 30 8 54 14
24 7 61 28 82 47 150 135 83 365 -121 414 -192 46 -342 -141 -260 -325 24 -54
74 -105 121 -125 18 -8 29 -18 26 -26 -5 -13 -19 -68 -30 -116 l-6 -27 -53 39
c-57 44 -169 101 -234 120 -39 12 -47 21 -97 105 -244 409 -653 648 -1205 704
-137 14 -379 12 -517 -5z m596 -99 c101 -17 271 -59 298 -74 12 -7 0 -17 -56
-45 -184 -93 -321 -127 -532 -133 -233 -7 -398 27 -598 125 l-95 47 74 22 c88
27 252 60 364 73 115 13 433 4 545 -15z m-1010 -165 c343 -200 761 -239 1135
-104 38 14 114 48 168 76 l97 51 63 -29 c161 -76 348 -232 465 -389 73 -99
155 -262 195 -390 33 -105 43 -146 67 -279 12 -73 13 -312 1 -369 -5 -23 -15
-69 -22 -102 -7 -33 -29 -99 -49 -146 -165 -385 -574 -624 -1185 -694 -152
-17 -542 -20 -696 -5 -472 47 -804 211 -1008 500 -115 164 -179 348 -203 585
-10 103 -9 142 5 265 18 155 53 314 82 370 31 62 147 223 209 293 105 116 276
250 406 317 38 20 188 87 198 89 2 1 34 -17 72 -39z m-1227 -158 c26 -26 31
-40 35 -89 3 -49 0 -64 -20 -92 -33 -49 -69 -72 -120 -78 -57 -7 -121 24 -145
70 -23 45 -21 118 6 155 54 77 183 95 244 34z m3892 -13 c24 -7 55 -27 78 -51
33 -34 37 -45 37 -89 0 -94 -54 -149 -146 -149 -95 0 -154 62 -154 162 0 46 5
62 26 87 38 45 91 59 159 40z"/>
<path d="M2371 3499 c-298 -21 -670 -101 -837 -179 -181 -84 -318 -212 -397
-372 -68 -135 -82 -196 -81 -358 2 -170 30 -285 108 -445 112 -226 298 -375
609 -487 152 -54 268 -75 487 -87 237 -14 601 -14 710 -1 268 33 660 174 811
291 117 90 198 191 253 311 123 271 104 600 -49 833 -90 137 -164 200 -330
283 -381 191 -743 250 -1284 211z m-354 -883 c72 -33 96 -55 91 -88 -3 -21 -7
-23 -58 -21 -222 9 -231 8 -332 -27 -81 -28 -100 -31 -112 -20 -23 18 -20 44
10 79 88 105 263 138 401 77z m1476 -9 c63 -29 137 -96 137 -124 0 -28 -25
-47 -52 -40 -13 3 -56 17 -97 32 -81 29 -206 37 -290 17 -57 -14 -83 -1 -79
36 2 20 16 35 57 59 30 18 73 37 95 42 64 16 169 5 229 -22z"/>
<path d="M3605 1253 c-16 -2 -109 -24 -206 -48 -498 -126 -923 -134 -1564 -29
-263 43 -341 43 -429 0 -143 -70 -226 -259 -250 -571 l-7 -80 40 -27 c21 -16
42 -28 45 -28 3 0 6 37 6 83 0 71 19 198 48 317 25 100 96 199 167 231 59 27
146 24 383 -16 353 -58 698 -81 963 -65 218 13 371 37 609 97 201 51 284 59
336 31 76 -41 133 -132 158 -253 18 -87 40 -358 31 -392 -7 -28 -2 -26 54 15
l34 25 -6 131 c-12 309 -91 490 -242 557 -43 19 -122 30 -170 22z"/>
<path d="M4030 1100 c-7 -13 -7 -38 -1 -77 6 -32 19 -110 30 -173 11 -63 23
-145 26 -182 4 -38 10 -68 13 -68 4 1 24 15 45 33 l38 33 -21 124 c-12 69 -24
140 -27 159 l-6 35 39 -24 c21 -14 73 -48 115 -77 l76 -52 31 32 31 32 -72 50
c-118 82 -271 175 -289 175 -10 0 -22 -9 -28 -20z"/>
<path d="M1074 1063 c-38 -19 -96 -51 -129 -71 -33 -19 -69 -40 -80 -46 -41
-23 -105 -69 -105 -75 0 -4 13 -20 29 -35 l28 -27 69 44 c123 78 184 110 184
95 0 -28 -31 -119 -65 -192 -19 -40 -35 -78 -35 -83 0 -6 26 -31 58 -56 l59
-46 16 97 c9 53 28 147 43 207 38 155 41 200 16 214 -16 9 -33 4 -88 -26z"/>
<path d="M2410 934 c-19 -2 -84 -9 -145 -15 -264 -26 -470 -76 -546 -131 -24
-17 -48 -47 -59 -72 -18 -40 -18 -52 -5 -255 8 -117 15 -214 17 -216 2 -1 23
-9 47 -19 l44 -17 -8 98 c-16 197 -20 373 -10 386 31 43 177 88 375 117 306
44 486 47 805 14 270 -27 422 -64 482 -117 l36 -32 -7 -125 c-4 -69 -13 -170
-21 -225 -8 -54 -12 -101 -10 -103 10 -10 95 32 95 47 0 9 7 66 15 126 22 162
20 292 -5 332 -59 97 -220 150 -570 188 -142 16 -461 27 -530 19z"/>
</g>
</svg>
