<?xml version="1.0" standalone="no"?>
<!DOCTYPE svg PUBLIC "-//W3C//DTD SVG 20010904//EN"
 "http://www.w3.org/TR/2001/REC-SVG-20010904/DTD/svg10.dtd">
<svg version="1.0" xmlns="http://www.w3.org/2000/svg"
 width="512.000000pt" height="512.000000pt" viewBox="0 0 512.000000 512.000000"
 preserveAspectRatio="xMidYMid meet">
<metadata>
Created by potrace 1.14, written by Peter Selinger 2001-2017
</metadata>
<g transform="translate(0.000000,512.000000) scale(0.100000,-0.100000)"
fill="#000000" stroke="none">
<path d="M2320 4020 c-197 -22 -379 -68 -628 -159 -180 -67 -236 -93 -347
-166 -170 -111 -306 -255 -419 -442 l-52 -87 -63 -12 c-35 -7 -92 -27 -128
-43 -44 -21 -65 -27 -68 -18 -9 27 -36 160 -33 162 2 1 21 12 43 23 144 73
181 269 71 378 -67 67 -180 83 -271 38 -34 -16 -47 -32 -85 -109 -57 -114 -61
-169 -16 -234 31 -45 91 -85 143 -96 29 -6 32 -10 47 -78 33 -147 36 -135 -36
-208 -74 -77 -120 -150 -156 -251 -36 -100 -37 -254 -4 -339 42 -106 121 -211
245 -328 l57 -54 20 26 c23 29 48 38 205 68 61 12 111 23 113 25 2 1 -8 40
-23 87 -28 94 -55 267 -55 365 0 79 17 234 36 332 26 131 54 199 125 304 172
257 383 435 657 555 l92 41 88 -50 c394 -227 873 -233 1283 -18 l96 51 94 -49
c289 -149 515 -420 624 -747 62 -187 79 -290 78 -487 0 -155 -3 -186 -26 -270
-14 -52 -28 -102 -31 -111 -6 -13 16 -20 125 -44 98 -21 139 -35 161 -53 l29
-25 61 59 c158 155 228 307 228 496 0 146 -42 274 -127 385 l-36 47 23 96 c27
114 35 130 61 130 31 0 91 28 122 58 160 152 44 407 -184 406 -53 0 -74 -5
-112 -27 -146 -86 -139 -318 12 -404 25 -15 48 -28 50 -29 7 -5 -33 -154 -41
-154 -5 0 -33 18 -62 40 -55 42 -180 103 -232 114 -26 6 -40 21 -84 96 -227
383 -596 617 -1098 696 -117 18 -454 26 -572 14z m416 -81 c168 -16 444 -78
444 -99 0 -12 -129 -76 -219 -109 -265 -98 -587 -98 -852 0 -91 33 -219 97
-219 109 0 10 133 46 263 71 193 37 391 47 583 28z m-2126 -317 c121 -60 75
-261 -67 -288 -106 -20 -201 80 -174 184 11 41 60 95 101 111 39 15 102 13
140 -7z m3905 -33 c22 -6 56 -28 76 -48 49 -48 58 -102 30 -165 -48 -110 -197
-118 -274 -14 -26 35 -34 116 -14 154 36 70 100 96 182 73z"/>
<path d="M2255 3469 c-289 -24 -666 -108 -820 -184 -219 -107 -371 -284 -431
-500 -25 -91 -30 -272 -10 -378 17 -90 71 -253 86 -262 5 -3 99 11 210 32
l200 37 193 -27 c346 -49 379 -51 772 -52 398 0 499 7 809 56 145 23 133 24
390 -25 104 -20 198 -36 208 -36 23 0 52 63 81 180 30 121 29 311 -1 435 -41
166 -129 309 -252 411 -69 57 -321 181 -461 228 -252 83 -611 115 -974 85z
m-310 -874 c74 -37 102 -73 85 -105 -11 -21 -16 -22 -73 -14 -124 18 -224 10
-320 -24 -90 -32 -111 -32 -127 -3 -22 41 57 122 159 162 74 30 199 23 276
-16z m1473 -9 c61 -31 132 -98 132 -124 0 -11 -9 -27 -19 -36 -19 -17 -24 -17
-108 12 -115 40 -183 47 -287 32 -69 -11 -88 -11 -101 0 -43 35 4 93 106 131
79 29 205 22 277 -15z"/>
<path d="M1200 1952 c0 -10 83 -92 93 -92 4 0 7 23 7 50 l0 50 -50 0 c-27 0
-50 -4 -50 -8z"/>
<path d="M3614 1951 c-2 -2 -4 -31 -4 -63 0 -42 4 -58 12 -56 15 5 126 101
127 110 1 7 -128 16 -135 9z"/>
<path d="M836 1939 c-71 -5 -130 -10 -132 -12 -2 -2 37 -47 86 -100 90 -95
198 -191 296 -261 l52 -36 78 33 c69 30 79 37 82 62 3 23 -7 37 -62 87 -36 33
-96 100 -132 149 -76 102 -43 92 -268 78z"/>
<path d="M3860 1879 c-46 -64 -122 -137 -202 -198 -27 -19 -48 -42 -48 -51 0
-11 32 -30 100 -58 l101 -41 102 77 c56 42 154 128 217 192 l115 115 -45 6
c-25 3 -101 9 -170 13 l-125 6 -45 -61z"/>
<path d="M3485 1455 c-463 -127 -668 -158 -1030 -158 -361 0 -538 26 -1016
153 -20 6 -70 10 -110 9 l-74 -1 119 -58 c352 -174 777 -241 1336 -211 292 15
470 48 685 128 74 27 305 140 305 148 0 11 -168 3 -215 -10z"/>
<path d="M3310 1184 c-96 -25 -229 -54 -294 -64 -357 -59 -769 -47 -1266 36
-155 26 -235 35 -285 31 -207 -12 -322 -162 -370 -482 l-15 -100 30 -27 c17
-16 34 -28 38 -28 5 0 14 47 20 104 37 311 137 456 317 456 27 0 132 -13 234
-30 689 -110 1085 -104 1611 27 221 55 278 58 343 19 113 -66 162 -207 174
-503 3 -90 10 -163 14 -163 4 0 22 8 39 18 l32 17 -6 145 c-13 315 -86 493
-229 564 -80 40 -169 36 -387 -20z"/>
<path d="M3952 1088 c-17 -17 -15 -37 13 -189 14 -74 29 -178 34 -232 4 -53
11 -100 14 -103 7 -7 64 34 71 51 4 12 -28 248 -43 318 -5 20 -6 37 -2 37 7 0
112 -68 202 -132 l60 -42 26 26 c14 14 23 31 19 36 -14 23 -352 242 -373 242
-5 0 -14 -5 -21 -12z"/>
<path d="M909 994 c-85 -47 -155 -87 -157 -88 -6 -6 41 -56 52 -56 7 0 53 23
101 50 48 28 89 49 92 47 2 -3 -8 -50 -22 -105 -31 -123 -31 -133 -2 -160 30
-28 45 -28 51 1 3 12 21 92 40 177 41 178 43 196 17 209 -15 8 -48 -6 -172
-75z"/>
<path d="M2405 934 c-383 -26 -663 -79 -758 -144 -67 -46 -72 -61 -70 -210 1
-74 4 -168 8 -208 7 -71 8 -74 41 -89 18 -9 37 -14 40 -10 4 3 1 75 -5 159
-18 242 -17 252 22 282 107 81 511 142 877 133 425 -11 744 -76 790 -161 16
-30 9 -178 -15 -355 -9 -62 -14 -115 -13 -117 2 -2 20 2 41 8 42 13 41 9 62
193 26 227 19 301 -36 352 -57 52 -205 100 -391 127 -165 24 -497 46 -593 40z"/>
</g>
</svg>
